<svg width="60" height="60" viewBox="0 0 60 60" fill="none" xmlns="http://www.w3.org/2000/svg">
<path d="M19.5 18L8 57.5H24.5V46H32L23.5 18H19.5Z" fill="white"/>
<path fill-rule="evenodd" clip-rule="evenodd" d="M16.0679 28.2301C16.2628 28.0345 16.5794 28.0339 16.775 28.2288L19.3 30.7444C19.4956 30.9393 19.4962 31.2559 19.3013 31.4515C19.1064 31.6472 18.7898 31.6477 18.5942 31.4528L16.0692 28.9372C15.8736 28.7423 15.873 28.4257 16.0679 28.2301Z" fill="#3C3C3C"/>
<path d="M24.8036 11.8676C25.249 9.98065 24.0803 8.08987 22.1933 7.64448C20.3063 7.19909 18.4156 8.36777 17.9702 10.2548C17.5248 12.1418 18.6935 14.0326 20.5805 14.478C22.4675 14.9233 24.3583 13.7546 24.8036 11.8676Z" fill="#FD8780"/>
<path fill-rule="evenodd" clip-rule="evenodd" d="M27.8061 5.60097C28.026 5.43388 28.3397 5.47665 28.5067 5.69651C29.6413 7.18934 30.3076 9.05041 30.3076 11.0678C30.3076 13.0853 29.6413 14.9463 28.5067 16.4392C28.3397 16.659 28.026 16.7018 27.8061 16.5347C27.5863 16.3676 27.5435 16.0539 27.7106 15.8341C28.7162 14.511 29.3076 12.8614 29.3076 11.0678C29.3076 9.27429 28.7162 7.62472 27.7106 6.30159C27.5435 6.08174 27.5863 5.76806 27.8061 5.60097Z" fill="#FD8780"/>
<path fill-rule="evenodd" clip-rule="evenodd" d="M14.9598 5.60097C15.1796 5.76806 15.2224 6.08174 15.0553 6.30159C14.0497 7.62472 13.4583 9.27429 13.4583 11.0678C13.4583 12.8614 14.0497 14.511 15.0553 15.8341C15.2224 16.0539 15.1796 16.3676 14.9598 16.5347C14.7399 16.7018 14.4262 16.659 14.2591 16.4392C13.1246 14.9463 12.4583 13.0853 12.4583 11.0678C12.4583 9.05041 13.1246 7.18934 14.2591 5.69651C14.4262 5.47665 14.7399 5.43388 14.9598 5.60097Z" fill="#FD8780"/>
<path fill-rule="evenodd" clip-rule="evenodd" d="M33.0459 3.45985C33.2665 3.29384 33.58 3.33814 33.746 3.5588C35.3195 5.65017 36.2588 8.24226 36.2588 11.0589C36.2588 13.875 35.3198 16.477 33.7453 18.56C33.5788 18.7803 33.2653 18.8239 33.045 18.6574C32.8247 18.4908 32.7811 18.1773 32.9476 17.957C34.3956 16.0412 35.2588 13.6495 35.2588 11.0589C35.2588 8.46898 34.396 6.08609 32.9469 4.16C32.7809 3.93934 32.8252 3.62587 33.0459 3.45985Z" fill="#FD8780"/>
<path fill-rule="evenodd" clip-rule="evenodd" d="M9.7226 3.47022C9.94239 3.63739 9.98505 3.95108 9.81788 4.17088C8.36205 6.085 7.50757 8.47597 7.50757 11.0677C7.50757 13.6577 8.37045 16.0405 9.81947 17.9666C9.98548 18.1873 9.94117 18.5007 9.7205 18.6668C9.49983 18.8328 9.18637 18.7885 9.02036 18.5678C7.44701 16.4764 6.50757 13.8844 6.50757 11.0677C6.50757 8.25268 7.43655 5.64997 9.02194 3.5655C9.18911 3.34571 9.50281 3.30305 9.7226 3.47022Z" fill="#FD8780"/>
<path fill-rule="evenodd" clip-rule="evenodd" d="M38.3293 1.30126C38.5496 1.13482 38.8632 1.1785 39.0296 1.39884C41.0642 4.09216 42.2658 7.43573 42.2658 11.068C42.2658 14.7004 41.0642 18.044 39.0296 20.7373C38.8632 20.9577 38.5496 21.0013 38.3293 20.8349C38.1089 20.6684 38.0652 20.3549 38.2317 20.1346C40.1396 17.6089 41.2658 14.4756 41.2658 11.068C41.2658 7.66051 40.1396 4.52719 38.2317 2.00161C38.0652 1.78127 38.1089 1.46771 38.3293 1.30126Z" fill="#FD8780"/>
<path fill-rule="evenodd" clip-rule="evenodd" d="M4.43651 1.30126C4.65685 1.46771 4.70054 1.78126 4.53409 2.0016C2.62625 4.52719 1.5 7.66051 1.5 11.068C1.5 14.4756 2.62625 17.6089 4.53409 20.1346C4.70054 20.3549 4.65685 20.6685 4.4365 20.8349C4.21616 21.0013 3.90261 20.9577 3.73616 20.7373C1.70163 18.044 0.5 14.7004 0.5 11.068C0.5 7.43572 1.70163 4.09216 3.73617 1.39885C3.90261 1.1785 4.21617 1.13481 4.43651 1.30126Z" fill="#FD8780"/>
<path fill-rule="evenodd" clip-rule="evenodd" d="M19.4428 17.7874C19.708 17.8641 19.8609 18.1414 19.7842 18.4066L8.39817 57.7741C8.32145 58.0394 8.04421 58.1922 7.77894 58.1155C7.51367 58.0388 7.36082 57.7616 7.43754 57.4963L18.8235 18.1288C18.9003 17.8635 19.1775 17.7107 19.4428 17.7874Z" fill="#3C3C3C"/>
<path fill-rule="evenodd" clip-rule="evenodd" d="M23.3163 17.7797C23.5805 17.6991 23.8599 17.8479 23.9405 18.112L32.3228 45.5772C32.4034 45.8414 32.2546 46.1208 31.9905 46.2014C31.7264 46.282 31.4469 46.1333 31.3663 45.8691L22.9841 18.4039C22.9035 18.1398 23.0522 17.8603 23.3163 17.7797Z" fill="#3C3C3C"/>
<path fill-rule="evenodd" clip-rule="evenodd" d="M0.875244 57.6348C0.875244 57.3586 1.0991 57.1348 1.37524 57.1348H23.9125C24.1887 57.1348 24.4125 57.3586 24.4125 57.6348C24.4125 57.9109 24.1887 58.1348 23.9125 58.1348H1.37524C1.0991 58.1348 0.875244 57.9109 0.875244 57.6348Z" fill="#3C3C3C"/>
<path fill-rule="evenodd" clip-rule="evenodd" d="M27.8388 43.3204C28.0254 43.524 28.0116 43.8403 27.808 44.0268L23.3212 48.1382C23.1176 48.3248 22.8013 48.311 22.6148 48.1074C22.4282 47.9038 22.442 47.5875 22.6456 47.401L27.1324 43.2896C27.336 43.103 27.6523 43.1168 27.8388 43.3204Z" fill="#3C3C3C"/>
<path fill-rule="evenodd" clip-rule="evenodd" d="M18.6871 52.4728C18.8736 52.6764 18.8598 52.9926 18.6562 53.1792L14.1693 57.2905C13.9657 57.4771 13.6495 57.4632 13.4629 57.2596C13.2763 57.056 13.2902 56.7398 13.4938 56.5532L17.9806 52.4419C18.1842 52.2553 18.5005 52.2692 18.6871 52.4728Z" fill="#3C3C3C"/>
<path fill-rule="evenodd" clip-rule="evenodd" d="M26.8013 28.2302C26.9962 28.4258 26.9956 28.7424 26.7999 28.9373L12.72 42.9609C12.5244 43.1557 12.2078 43.1551 12.0129 42.9595C11.8181 42.7638 11.8187 42.4472 12.0143 42.2524L26.0942 28.2287C26.2899 28.0339 26.6065 28.0345 26.8013 28.2302Z" fill="#3C3C3C"/>
<path fill-rule="evenodd" clip-rule="evenodd" d="M23.559 35.6926C23.7542 35.4972 24.0707 35.497 24.2661 35.6921L30.9588 42.3754C31.1542 42.5705 31.1544 42.8871 30.9593 43.0825C30.7642 43.2779 30.4476 43.2781 30.2522 43.083L23.5595 36.3997C23.3641 36.2046 23.3639 35.888 23.559 35.6926Z" fill="#3C3C3C"/>
<path fill-rule="evenodd" clip-rule="evenodd" d="M11.9988 42.2694C12.1855 42.0659 12.5018 42.0523 12.7053 42.239L24.2226 52.8084C24.426 52.9951 24.4396 53.3114 24.2529 53.5148C24.0662 53.7183 23.7499 53.7318 23.5465 53.5451L12.0291 42.9758C11.8257 42.7891 11.8121 42.4728 11.9988 42.2694Z" fill="#3C3C3C"/>
<path d="M32.079 49.2627H27.198V58.2832H32.079V49.2627Z" fill="url(#paint0_linear_15072_5039)"/>
<path fill-rule="evenodd" clip-rule="evenodd" d="M26.698 49.2627C26.698 48.9866 26.9219 48.7627 27.198 48.7627H32.079C32.3552 48.7627 32.579 48.9866 32.579 49.2627V58.2832C32.579 58.5593 32.3552 58.7832 32.079 58.7832H27.198C26.9219 58.7832 26.698 58.5593 26.698 58.2832V49.2627ZM27.698 49.7627V57.7832H31.579V49.7627H27.698Z" fill="#3C3C3C"/>
<path d="M41.0526 41.7627H36.1716V58.2926H41.0526V41.7627Z" fill="url(#paint1_linear_15072_5039)"/>
<path fill-rule="evenodd" clip-rule="evenodd" d="M35.6716 41.7627C35.6716 41.4866 35.8955 41.2627 36.1716 41.2627H41.0526C41.3287 41.2627 41.5526 41.4866 41.5526 41.7627V58.2926C41.5526 58.5687 41.3287 58.7926 41.0526 58.7926H36.1716C35.8955 58.7926 35.6716 58.5687 35.6716 58.2926V41.7627ZM36.6716 42.2627V57.7926H40.5526V42.2627H36.6716Z" fill="#3C3C3C"/>
<path d="M50.0261 32.6475H45.145V58.2918H50.0261V32.6475Z" fill="url(#paint2_linear_15072_5039)"/>
<path fill-rule="evenodd" clip-rule="evenodd" d="M44.645 32.6475C44.645 32.3713 44.8689 32.1475 45.145 32.1475H50.0261C50.3022 32.1475 50.5261 32.3713 50.5261 32.6475V58.2918C50.5261 58.5679 50.3022 58.7918 50.0261 58.7918H45.145C44.8689 58.7918 44.645 58.5679 44.645 58.2918V32.6475ZM45.645 33.1475V57.7918H49.5261V33.1475H45.645Z" fill="#3C3C3C"/>
<path d="M58.9999 24.3779H54.1189V58.2542H58.9999V24.3779Z" fill="url(#paint3_linear_15072_5039)"/>
<path fill-rule="evenodd" clip-rule="evenodd" d="M53.6189 24.3779C53.6189 24.1018 53.8428 23.8779 54.1189 23.8779H58.9999C59.2761 23.8779 59.4999 24.1018 59.4999 24.3779V58.2542C59.4999 58.5303 59.2761 58.7542 58.9999 58.7542H54.1189C53.8428 58.7542 53.6189 58.5303 53.6189 58.2542V24.3779ZM54.6189 24.8779V57.7542H58.4999V24.8779H54.6189Z" fill="#3C3C3C"/>
<path fill-rule="evenodd" clip-rule="evenodd" d="M17.4385 37.9831C17.6334 37.7874 17.95 37.7868 18.1456 37.9817L23.0641 42.8815C23.2598 43.0763 23.2604 43.3929 23.0655 43.5886C22.8706 43.7842 22.554 43.7848 22.3584 43.5899L17.4398 38.6902C17.2442 38.4953 17.2436 38.1787 17.4385 37.9831Z" fill="#3C3C3C"/>
<path fill-rule="evenodd" clip-rule="evenodd" d="M10.1828 49.1528C10.3778 48.9573 10.6944 48.9568 10.8899 49.1518L14.3254 52.5779C14.521 52.7729 14.5214 53.0895 14.3264 53.285C14.1314 53.4805 13.8148 53.481 13.6193 53.286L10.1838 49.8599C9.98827 49.6649 9.98783 49.3483 10.1828 49.1528Z" fill="#3C3C3C"/>
<path fill-rule="evenodd" clip-rule="evenodd" d="M24.8164 22.004C25.0029 22.2076 24.9891 22.5239 24.7855 22.7104L20.2987 26.8218C20.0951 27.0084 19.7789 26.9946 19.5923 26.791C19.4057 26.5874 19.4196 26.2711 19.6231 26.0845L24.1099 21.9732C24.3135 21.7866 24.6298 21.8004 24.8164 22.004Z" fill="#3C3C3C"/>
<defs>
<linearGradient id="paint0_linear_15072_5039" x1="29.6385" y1="49.2627" x2="29.6385" y2="58.2832" gradientUnits="userSpaceOnUse">
<stop stop-color="#FC867F"/>
<stop offset="1" stop-color="#F65041"/>
</linearGradient>
<linearGradient id="paint1_linear_15072_5039" x1="38.6121" y1="41.7627" x2="38.6121" y2="58.2926" gradientUnits="userSpaceOnUse">
<stop stop-color="#FC867F"/>
<stop offset="1" stop-color="#F65041"/>
</linearGradient>
<linearGradient id="paint2_linear_15072_5039" x1="47.5855" y1="32.6475" x2="47.5855" y2="58.2918" gradientUnits="userSpaceOnUse">
<stop stop-color="#FC867F"/>
<stop offset="1" stop-color="#F65041"/>
</linearGradient>
<linearGradient id="paint3_linear_15072_5039" x1="56.5594" y1="24.3779" x2="56.5594" y2="58.2542" gradientUnits="userSpaceOnUse">
<stop stop-color="#FC867F"/>
<stop offset="1" stop-color="#F65041"/>
</linearGradient>
</defs>
</svg>
