<svg width="20" height="20" viewBox="0 0 20 20" fill="none" xmlns="http://www.w3.org/2000/svg">
<path d="M10.0083 15.8335L10.0937 15.8376C10.5139 15.8803 10.8416 16.2354 10.8416 16.6668C10.8415 17.0981 10.5138 17.4526 10.0937 17.4953L10.0083 17.5002H10.0001C9.53999 17.5002 9.16695 17.1269 9.1668 16.6668C9.1668 16.2066 9.53989 15.8335 10.0001 15.8335H10.0083ZM10.0001 11.666C11.227 11.666 12.4083 12.117 13.3213 12.9282L13.5003 13.0959L13.5581 13.1585C13.8281 13.4832 13.8137 13.9662 13.5117 14.2743C13.1895 14.6027 12.6619 14.6077 12.3333 14.2856C11.7102 13.675 10.8726 13.3327 10.0001 13.3327C9.1277 13.3327 8.29004 13.675 7.66696 14.2856C7.33836 14.6077 6.81076 14.6027 6.48857 14.2743C6.16648 13.9456 6.17151 13.4181 6.49997 13.0959C7.43461 12.1797 8.69137 11.666 10.0001 11.666ZM10.0001 7.50016C12.3995 7.50016 14.7034 8.44103 16.417 10.1206C16.7455 10.4428 16.7505 10.9703 16.4284 11.299C16.1062 11.6275 15.5786 11.6332 15.25 11.3112C13.848 9.937 11.9633 9.16683 10.0001 9.16683C8.03698 9.16683 6.15226 9.937 4.75029 11.3112C4.42164 11.6332 3.89405 11.6275 3.57191 11.299C3.24977 10.9703 3.25471 10.4428 3.5833 10.1206C5.29681 8.44103 7.60073 7.50016 10.0001 7.50016ZM10.0001 3.3335C13.2798 3.3335 16.4447 4.54221 18.8893 6.72868C19.2322 7.03552 19.2612 7.56243 18.9544 7.90544C18.6476 8.24838 18.1206 8.27813 17.7776 7.97135C15.6387 6.0582 12.8699 5.00016 10.0001 5.00016C7.13039 5.00016 4.3616 6.0582 2.22262 7.97135C1.87962 8.27813 1.3527 8.24838 1.04587 7.90544C0.739075 7.56243 0.768038 7.03552 1.11097 6.72868C3.55551 4.54221 6.72043 3.3335 10.0001 3.3335Z" fill="#9D5EBF"/>
</svg>
