<svg width="20" height="20" viewBox="0 0 20 20" fill="none" xmlns="http://www.w3.org/2000/svg">
<g clip-path="url(#clip0_2455_8823)">
<path d="M17.5002 13.3328C17.5 12.8727 17.127 12.4995 16.6668 12.4995H3.3335C2.87335 12.4995 2.5003 12.8727 2.50016 13.3328V16.6662C2.50016 17.1264 2.87326 17.4995 3.3335 17.4995H16.6668C17.1271 17.4995 17.5002 17.1264 17.5002 16.6662V13.3328ZM5.0083 14.1662C5.46845 14.1662 5.84149 14.5394 5.84163 14.9995C5.84163 15.4597 5.46854 15.8328 5.0083 15.8328H5.00016C4.53993 15.8328 4.16683 15.4597 4.16683 14.9995C4.16697 14.5394 4.54001 14.1662 5.00016 14.1662H5.0083ZM8.34163 14.1662C8.80178 14.1662 9.17483 14.5394 9.17497 14.9995C9.17497 15.4597 8.80187 15.8328 8.34163 15.8328H8.3335C7.87326 15.8328 7.50016 15.4597 7.50016 14.9995C7.5003 14.5394 7.87335 14.1662 8.3335 14.1662H8.34163ZM12.5083 4.16374C13.0559 4.16374 13.5984 4.27145 14.1042 4.48112C14.61 4.6908 15.0697 4.99867 15.4567 5.38607L14.8667 5.97445L14.2775 6.56364C14.0454 6.33124 13.7696 6.14664 13.4661 6.02083C13.1627 5.89502 12.8368 5.8304 12.5083 5.8304C12.1799 5.83043 11.8547 5.8951 11.5513 6.02083C11.2478 6.14662 10.9721 6.33125 10.7399 6.56364C10.4147 6.88919 9.88716 6.88952 9.56152 6.56445C9.23592 6.23921 9.2355 5.71169 9.56071 5.38607C9.94768 4.99867 10.4074 4.6908 10.9132 4.48112C11.4189 4.27157 11.9609 4.16376 12.5083 4.16374ZM15.4567 5.38607C15.7817 5.7117 15.7814 6.23928 15.4559 6.56445C15.1303 6.88968 14.6028 6.88916 14.2775 6.56364L15.4567 5.38607ZM12.5042 0.832031C14.4925 0.832031 16.3998 1.6214 17.8062 3.02686C18.1316 3.35217 18.1314 3.87971 17.8062 4.20524C17.4809 4.53076 16.9533 4.5313 16.6278 4.20605C15.5339 3.11292 14.0507 2.4987 12.5042 2.4987C10.9578 2.49872 9.47453 3.11294 8.3807 4.20605L8.31722 4.26302C7.98982 4.52971 7.50725 4.51038 7.20231 4.20524C6.87715 3.87968 6.87764 3.35213 7.20313 3.02686L7.47249 2.77051C8.84804 1.52588 10.6404 0.832056 12.5042 0.832031ZM19.1668 16.6662C19.1668 18.0469 18.0475 19.1662 16.6668 19.1662H3.3335C1.95278 19.1662 0.833496 18.0469 0.833496 16.6662V13.3328C0.833638 11.9523 1.95287 10.8328 3.3335 10.8328H11.6668V8.33284C11.667 7.87273 12.04 7.49951 12.5002 7.49951C12.9603 7.49951 13.3334 7.87273 13.3335 8.33284V10.8328H16.6668C18.0475 10.8328 19.1667 11.9523 19.1668 13.3328V16.6662Z" fill="#9D5EBF"/>
</g>
<defs>
<clipPath id="clip0_2455_8823">
<rect width="20" height="20" fill="white"/>
</clipPath>
</defs>
</svg>
