<?xml version="1.0" encoding="UTF-8"?>
<svg id="uuid-9572cc75-9bc7-49d5-8ce5-dcee562ec53f" data-name="Capa 1" xmlns="http://www.w3.org/2000/svg" viewBox="0 0 2196.58 562.95">
  <defs>
    <style>
      .uuid-85f52c93-7e95-4faa-b0c4-da58f03d4723 {
        fill: #fff;
      }

      .uuid-026bc314-7a4b-46ec-8264-d467af7792cb {
        fill: #da291c;
      }
    </style>
  </defs>
  <rect width="2196.58" height="562.95"/>
  <g>
    <path class="uuid-85f52c93-7e95-4faa-b0c4-da58f03d4723" d="M288,394.63c36.73-2.06,80.82-37.76,81.32-67.9-10.61,0-21.22.12-31.83-.07-3.14-.06-4.84.88-6.47,3.7-9.54,16.48-23.46,26.52-42.76,28.71-22.48,2.56-45.72-9.52-56.46-29.68-10.86-20.39-7.84-47.08,6.84-64.23,15.26-17.82,34.08-24.69,56.95-19.03,15.97,3.95,27.55,13.85,35.68,28.03.73,1.28,2.4,2.84,3.66,2.86,11.33.22,22.67.13,34.41.13-8.57-37.96-48.35-74.73-100.89-67.48-45.32,6.26-78.73,47.09-78.67,92.91,0,2.25.09,4.52.25,6.79,3.37,45.82,43.7,88.3,97.96,85.26Z"/>
    <path class="uuid-85f52c93-7e95-4faa-b0c4-da58f03d4723" d="M567.93,286.26c-.81-15.95-7.98-27.89-23.46-34.1-22.03-8.84-44.38-8.79-66.57-1.62-18.7,6.05-31.04,25.86-29.34,44.95h34.68c.37-1.65.65-3.08,1.02-4.48,1.97-7.49,6.42-12.8,14.1-14.53,9.13-2.06,18.28-1.77,26.79,2.56,2.13,1.08,4.14,3.38,5.11,5.6,3.9,8.98-.67,16.53-10.47,18.1-12.48,2-25.06,3.6-37.38,6.32-13.07,2.89-24.77,8.54-31.56,21.16-5.48,10.2-6.02,21.21-4.6,32.28,1.95,15.14,10.47,25.63,25.09,29.88,20.54,5.97,39.94,2.29,57.9-9.19,1.05-.67,2.06-1.41,3.81-2.61v14.48h35.29v-5.37c0-21.97.03-43.94-.01-65.9-.03-12.51.24-25.04-.39-37.52ZM529.48,346.9c-2.45,19.35-27.41,26.47-39.28,21.83-7.46-2.91-10.06-8.72-10.2-16.15-.15-8.12,2.73-14.81,10.44-18.03,5.02-2.1,10.63-2.74,15.93-4.2,7.91-2.18,15.78-4.51,24.53-7.02-.43,7.68-.42,15.7-1.42,23.58Z"/>
    <path class="uuid-85f52c93-7e95-4faa-b0c4-da58f03d4723" d="M751.6,246.06c-41.03.07-73.76,33.6-73.63,75.44-1.06,41.26,34.75,75.08,73.88,74.82,41.12-.28,74.52-33.62,74.6-74.88.08-41.8-33.33-75.44-74.85-75.37ZM751.9,360.74c-21.58-.11-38.86-18.26-39.21-40.31-.28-17.97,16.14-40.26,39.71-38.89,20.89-.85,39.21,16.5,39.13,39.78-.08,21.57-18.3,39.53-39.63,39.42Z"/>
    <path class="uuid-85f52c93-7e95-4faa-b0c4-da58f03d4723" d="M388.42,213.86v176.38c0,.73-.27,1.63.07,2.15.65,1,1.63,2.53,2.5,2.54,10.74.17,21.49.11,32.63.11v-185.46h-35.2v4.28Z"/>
    <path class="uuid-85f52c93-7e95-4faa-b0c4-da58f03d4723" d="M626.58,270.7c-.31-.32-.62-.64-.93-.97v-16.77h-32.88v142.15h34.6c0-2.01,0-3.72,0-5.44.01-22.41-.03-44.83.05-67.24.1-28.61,20.91-43.09,43.63-40.4,1.09.13,2.2.02,3.3.02v-35.77c-19.54,1.31-36.01,8.03-47.78,24.42Z"/>
    <path class="uuid-85f52c93-7e95-4faa-b0c4-da58f03d4723" d="M896.85,144.35c-28.58,27.85-57.5,56.03-86.16,83.95,7.54,7.67,14.65,14.91,21.37,21.75,28.77-28.51,57.33-56.81,86.05-85.26-7.48-7.19-14.99-14.41-21.25-20.44Z"/>
    <path class="uuid-85f52c93-7e95-4faa-b0c4-da58f03d4723" d="M848.71,318.57h93.58v-31.14h-93.58v31.14Z"/>
    <path class="uuid-85f52c93-7e95-4faa-b0c4-da58f03d4723" d="M771.48,124.9h-30.97v91.76h30.97v-91.76Z"/>
  </g>
  <rect class="uuid-85f52c93-7e95-4faa-b0c4-da58f03d4723" x="1102.79" y="131.52" width="14.33" height="304.46"/>
  <g>
    <path class="uuid-85f52c93-7e95-4faa-b0c4-da58f03d4723" d="M1727.41,397.26c17.02-.4,22.45-12.93,23.42-15.08.98-2.22,49.35-132.32,49.35-132.32.22-.55.33-1.11.33-1.65-.02-2.66-2.58-3.78-4.43-3.78h-28.09c-2.47,0-4.81.98-5.51,2.98-.65,1.53-34.97,102.9-34.97,102.9.04.07-34.53-101.37-35.16-102.9-.7-1.97-3.02-2.98-5.48-2.98h-28.08c-1.89,0-4.41,1.12-4.47,3.78,0,.53.13,1.1.35,1.65,0,0,48.55,130.56,49.31,132.32.82,1.77,6.44,14.67,23.44,15.08Z"/>
    <path class="uuid-85f52c93-7e95-4faa-b0c4-da58f03d4723" d="M1944.86,299.55c0-6.29,2.22-10.22,5.6-13.78,3.13-3.28,8.29-4.82,12.51-4.82l38.26.02c1.76,0,3.63-.29,5.21-1.67,1.63-1.44,1.94-3.43,1.94-4.73l.08-24.22c0-1.31-.32-3.27-1.93-4.77-1.34-1.11-2.82-1.48-4.3-1.55l.04-.06h-35.48c-17.04,0-32.36,3.63-42.82,13.13-10.46,9.51-16.26,24.52-16.24,45.69v86.65c0,1.8.3,3.69,1.67,5.23,1.45,1.67,3.43,1.96,4.71,1.96l24.3.09c1.26,0,3.22-.31,4.73-1.94,1.13-1.3,1.5-2.84,1.57-4.34l.04.07.11-90.98Z"/>
    <path class="uuid-85f52c93-7e95-4faa-b0c4-da58f03d4723" d="M1816.62,205.68c0-1.75.3-3.64,1.67-5.22,1.51-1.66,3.45-1.96,4.77-1.96h24.22c1.3,0,3.26.29,4.75,1.96,1.37,1.56,1.65,3.47,1.65,5.22v38.95l30.99-.03c1.78,0,3.63.3,5.23,1.62,1.65,1.47,1.94,3.43,1.94,4.72v24.03c0,1.3-.29,3.23-1.94,4.67-1.6,1.37-3.49,1.65-5.23,1.65l-30.99-.02v60.5c0,6.27,2.11,10.19,5.51,13.72,3.09,3.23,8.23,4.85,12.49,4.85l12.87.07c1.76,0,3.72.15,5.28,1.54,1.65,1.41,1.95,3.39,1.95,4.74l.07,24.23c0,1.3-.29,3.25-1.95,4.71-1.3,1.13-2.82,1.51-4.3,1.62l-10.11.04c-17.04-.04-32.34-3.6-42.82-13.15-10.48-9.51-16.07-24.51-16.06-45.68v-132.79Z"/>
  </g>
  <g>
    <path class="uuid-026bc314-7a4b-46ec-8264-d467af7792cb" d="M1571.41,248.88l-.05-.04c.9-1.54,1.86-3.09,2.7-4.7,7.09-13.94,9.85-28.94,8.81-43.47-.04-.52-.09-1.05-.14-1.59-.97-10.68-4.02-21.09-8.94-30.62-2.59-5.03-5.73-9.82-9.36-14.27-1.87-2.33-3.88-4.55-6.03-6.67-.26-.25-.52-.49-.77-.73-5.74-5.49-12.34-10.27-19.79-14.07-4.66-2.37-9.45-4.26-14.3-5.69-11.88-3.49-24.11-4.2-35.87-2.35-14.11,2.18-27.53,7.98-38.83,16.95-7.5,5.93-14.08,13.24-19.28,21.79l-.04-.05-19.97,34.64s-.02-.08-.02-.14c-.38-3.49-.97-6.93-1.76-10.33-1.11-4.68-2.6-9.24-4.5-13.66-2.05-4.77-4.52-9.36-7.42-13.68-1.73-2.54-3.61-5-5.61-7.37-6.87-8.08-15.4-14.99-25.45-20.11-4.07-2.07-8.23-3.76-12.45-5.11-1.04-.34-2.07-.65-3.11-.93-.3-.1-.58-.15-.88-.24-20.16-5.35-41.24-2.76-59.14,6.47-4.01,2.06-7.86,4.44-11.47,7.14-9.94,7.36-18.37,17.08-24.37,28.85-11.76,23.04-11.66,49-2,70.99,1.84,4.19,4.05,8.22,6.57,12.07,2.97,4.53,6.39,8.79,10.26,12.69,3.82,3.89,8.1,7.44,12.75,10.56,2.76,1.85,5.6,3.55,8.62,5.09,1.81.92,3.64,1.75,5.5,2.53,13.34,5.64,27.48,7.5,41.11,5.99,5.93-.66,11.76-1.95,17.41-3.86,2.48-.83,4.97-1.77,7.36-2.84l-18.1,31.34h.06c-.95,1.57-1.88,3.14-2.73,4.78-.11.17-.2.33-.28.52-7.84,15.37-10.4,32.02-8.4,47.95.57,4.42,1.5,8.8,2.76,13.07,2.76,9.35,7.14,18.21,13.02,26.11,1.81,2.43,3.74,4.77,5.82,7,5.77,6.19,12.59,11.56,20.36,15.88.86.5,1.74.97,2.64,1.43,1.15.58,2.31,1.14,3.45,1.66,16.06,7.29,33.35,9,49.58,5.9,8.38-1.61,16.48-4.52,24-8.58,11.7-6.35,21.96-15.54,29.66-27.23.51-.76,1.01-1.53,1.49-2.31v.02s12.27-21.2,12.27-21.2l10.82-18.75,38.62-66.87,25.4-43.98ZM1491.34,292.47s.04-.09.01,0c.02-.05.06-.09.06-.09l-.06.09s0,.03-.01.05c0,0,0-.02,0-.04-.02.02-.04.04-.04.04l.04-.05Z"/>
    <path class="uuid-026bc314-7a4b-46ec-8264-d467af7792cb" d="M1582.91,360.5c-21.73,0-39.32,17.61-39.32,39.33s17.59,39.35,39.32,39.35,39.35-17.62,39.35-39.35-17.61-39.33-39.35-39.33Z"/>
  </g>
</svg>